<svg width="24" height="24" viewBox="0 0 24 24" fill="none" xmlns="http://www.w3.org/2000/svg">
<path d="M12 4V5.99998M12 5.99998V20M12 5.99998L19.9346 4.97894M12 5.99998L4.06543 7.02102M4 12.5V18.49C4 18.4955 4.00448 18.5 4.01 18.5H8.99C8.99552 18.5 9 18.4955 9 18.49V12.5M15 11.5V17.49C15 17.4955 15.0045 17.5 15.01 17.5H19.99C19.9955 17.5 20 17.4955 20 17.49V11.5M4.01943 12.5H8.98057C8.9887 12.5 8.99343 12.4908 8.98871 12.4842L6.50814 9.01139C6.50415 9.00581 6.49585 9.00581 6.49186 9.01139L4.01129 12.4842C4.00657 12.4908 4.0113 12.5 4.01943 12.5ZM15.0194 11.5H19.9806C19.9887 11.5 19.9934 11.4908 19.9887 11.4842L17.5081 8.01139C17.5041 8.00581 17.4959 8.00581 17.4919 8.01139L15.0113 11.4842C15.0066 11.4908 15.0113 11.5 15.0194 11.5Z" stroke="black" stroke-width="1.5" stroke-linecap="round"/>
</svg>
