<svg width="24" height="24" viewBox="0 0 24 24" fill="none" xmlns="http://www.w3.org/2000/svg">
<path d="M20 8.75C20.4142 8.75 20.75 8.41421 20.75 8C20.75 7.58579 20.4142 7.25 20 7.25V8.75ZM10.4697 7.46967C10.1768 7.76256 10.1768 8.23744 10.4697 8.53033L15.2426 13.3033C15.5355 13.5962 16.0104 13.5962 16.3033 13.3033C16.5962 13.0104 16.5962 12.5355 16.3033 12.2426L12.0607 8L16.3033 3.75736C16.5962 3.46447 16.5962 2.98959 16.3033 2.6967C16.0104 2.40381 15.5355 2.40381 15.2426 2.6967L10.4697 7.46967ZM4 15.25C3.58579 15.25 3.25 15.5858 3.25 16C3.25 16.4142 3.58579 16.75 4 16.75L4 15.25ZM13.5303 16.5303C13.8232 16.2374 13.8232 15.7626 13.5303 15.4697L8.75736 10.6967C8.46447 10.4038 7.98959 10.4038 7.6967 10.6967C7.40381 10.9896 7.40381 11.4645 7.6967 11.7574L11.9393 16L7.6967 20.2426C7.40381 20.5355 7.40381 21.0104 7.6967 21.3033C7.98959 21.5962 8.46447 21.5962 8.75736 21.3033L13.5303 16.5303ZM20 7.25H11V8.75H20V7.25ZM4 16.75L13 16.75L13 15.25L4 15.25L4 16.75Z" fill="black"/>
</svg>
