<svg width="24" height="24" viewBox="0 0 24 24" fill="none" xmlns="http://www.w3.org/2000/svg">
<path d="M4.53033 3.46967C4.23744 3.17678 3.76256 3.17678 3.46967 3.46967C3.17678 3.76256 3.17678 4.23744 3.46967 4.53033L4.53033 3.46967ZM9.33333 10.0833C9.74755 10.0833 10.0833 9.74755 10.0833 9.33333V2.58333C10.0833 2.16912 9.74755 1.83333 9.33333 1.83333C8.91912 1.83333 8.58333 2.16912 8.58333 2.58333V8.58333H2.58333C2.16912 8.58333 1.83333 8.91912 1.83333 9.33333C1.83333 9.74755 2.16912 10.0833 2.58333 10.0833H9.33333ZM3.46967 4.53033L8.803 9.86366L9.86366 8.803L4.53033 3.46967L3.46967 4.53033Z" fill="black"/>
<path d="M19.4697 20.5303C19.7626 20.8232 20.2374 20.8232 20.5303 20.5303C20.8232 20.2374 20.8232 19.7626 20.5303 19.4697L19.4697 20.5303ZM14.6667 13.9167C14.2525 13.9167 13.9167 14.2525 13.9167 14.6667V21.4167C13.9167 21.8309 14.2525 22.1667 14.6667 22.1667C15.0809 22.1667 15.4167 21.8309 15.4167 21.4167V15.4167H21.4167C21.8309 15.4167 22.1667 15.0809 22.1667 14.6667C22.1667 14.2525 21.8309 13.9167 21.4167 13.9167H14.6667ZM20.5303 19.4697L15.197 14.1363L14.1363 15.197L19.4697 20.5303L20.5303 19.4697Z" fill="black"/>
<path d="M20.5303 4.53033C20.8232 4.23744 20.8232 3.76256 20.5303 3.46967C20.2374 3.17678 19.7626 3.17678 19.4697 3.46967L20.5303 4.53033ZM13.9167 9.33333C13.9167 9.74755 14.2525 10.0833 14.6667 10.0833H21.4167C21.8309 10.0833 22.1667 9.74755 22.1667 9.33333C22.1667 8.91912 21.8309 8.58333 21.4167 8.58333H15.4167V2.58333C15.4167 2.16912 15.0809 1.83333 14.6667 1.83333C14.2525 1.83333 13.9167 2.16912 13.9167 2.58333V9.33333ZM19.4697 3.46967L14.1363 8.803L15.197 9.86366L20.5303 4.53033L19.4697 3.46967Z" fill="black"/>
<path d="M3.46967 19.4697C3.17678 19.7626 3.17678 20.2374 3.46967 20.5303C3.76256 20.8232 4.23744 20.8232 4.53033 20.5303L3.46967 19.4697ZM10.0833 14.6667C10.0833 14.2525 9.74755 13.9167 9.33333 13.9167H2.58333C2.16912 13.9167 1.83333 14.2525 1.83333 14.6667C1.83333 15.0809 2.16912 15.4167 2.58333 15.4167H8.58333V21.4167C8.58333 21.8309 8.91912 22.1667 9.33333 22.1667C9.74755 22.1667 10.0833 21.8309 10.0833 21.4167V14.6667ZM4.53033 20.5303L9.86366 15.197L8.803 14.1363L3.46967 19.4697L4.53033 20.5303Z" fill="black"/>
</svg>
