<svg width="24" height="24" viewBox="0 0 24 24" fill="none" xmlns="http://www.w3.org/2000/svg">
    <path d="M13.1641 18.5286H18.859C19.7975 18.5286 20.3333 17.4571 19.7701 16.7062L16.9227 12.9097C16.4671 12.3022 15.556 12.3022 15.1004 12.9097L14.379 13.8716M5.14099 18.5286H15.4925C16.4216 18.5286 16.9598 17.476 16.4158 16.7228L11.2401 9.55635C10.7854 8.92687 9.84802 8.92687 9.39339 9.55635L4.21765 16.7228C3.67365 17.476 4.21185 18.5286 5.14099 18.5286ZM18.8585 7.70845C18.8585 8.652 18.0936 9.4169 17.1501 9.4169C16.2065 9.4169 15.4416 8.652 15.4416 7.70845C15.4416 6.7649 16.2065 6 17.1501 6C18.0936 6 18.8585 6.7649 18.8585 7.70845Z" stroke="black" stroke-width="1.5"/>
</svg>
