<svg width="24" height="24" viewBox="0 0 24 24" fill="none" xmlns="http://www.w3.org/2000/svg">
<path d="M19.4697 20.5303C19.7626 20.8232 20.2374 20.8232 20.5303 20.5303C20.8232 20.2374 20.8232 19.7626 20.5303 19.4697L19.4697 20.5303ZM17.25 11C17.25 14.4518 14.4518 17.25 11 17.25V18.75C15.2802 18.75 18.75 15.2802 18.75 11H17.25ZM11 17.25C7.54822 17.25 4.75 14.4518 4.75 11H3.25C3.25 15.2802 6.71979 18.75 11 18.75V17.25ZM4.75 11C4.75 7.54822 7.54822 4.75 11 4.75V3.25C6.71979 3.25 3.25 6.71979 3.25 11H4.75ZM11 4.75C14.4518 4.75 17.25 7.54822 17.25 11H18.75C18.75 6.71979 15.2802 3.25 11 3.25V4.75ZM15.4697 16.5303L19.4697 20.5303L20.5303 19.4697L16.5303 15.4697L15.4697 16.5303Z" fill="black"/>
<path d="M8 11H14M11 8L11 14" stroke="black" stroke-width="1.5" stroke-linecap="round"/>
</svg>
