<svg width="24" height="24" viewBox="0 0 24 24" fill="none" xmlns="http://www.w3.org/2000/svg">
    <path d="M6.12988 18L1.61988 13.49C0.799883 12.67 0.799883 11.33 1.61988 10.51L6.12988 6L7.16988 7.04L2.64988 11.55C2.39988 11.8 2.39988 12.2 2.64988 12.45L7.15988 16.96L6.11988 18H6.12988Z" fill="#037FFF"/>
    <path d="M17.8701 18L16.8301 16.96L21.3401 12.45C21.4601 12.33 21.5301 12.17 21.5301 12C21.5301 11.83 21.4601 11.67 21.3401 11.55L16.8301 7.04L17.8701 6L22.3801 10.51C23.2001 11.33 23.2001 12.67 22.3801 13.49L17.8701 18Z" fill="#037FFF"/>
    <path d="M7.5199 13.37C8.27653 13.37 8.8899 12.7566 8.8899 12C8.8899 11.2434 8.27653 10.63 7.5199 10.63C6.76327 10.63 6.1499 11.2434 6.1499 12C6.1499 12.7566 6.76327 13.37 7.5199 13.37Z" fill="#037FFF"/>
    <path d="M11.9999 13.37C12.7565 13.37 13.3699 12.7566 13.3699 12C13.3699 11.2434 12.7565 10.63 11.9999 10.63C11.2433 10.63 10.6299 11.2434 10.6299 12C10.6299 12.7566 11.2433 13.37 11.9999 13.37Z" fill="#037FFF"/>
    <path d="M16.4799 13.37C17.2365 13.37 17.8499 12.7566 17.8499 12C17.8499 11.2434 17.2365 10.63 16.4799 10.63C15.7232 10.63 15.1099 11.2434 15.1099 12C15.1099 12.7566 15.7232 13.37 16.4799 13.37Z" fill="#037FFF"/>
    </svg>
    