<svg width="24" height="24" viewBox="0 0 24 24" fill="none" xmlns="http://www.w3.org/2000/svg">
<path d="M19.4983 23H4.50167C2.5675 23 1 21.4325 1 19.4983V4.50167C1 2.5675 2.5675 1 4.50167 1H19.4983C21.4325 1 23 2.5675 23 4.50167V19.4983C23 21.4325 21.4325 23 19.4983 23ZM4.50167 2.375C3.32833 2.375 2.375 3.32833 2.375 4.50167V19.4983C2.375 20.6717 3.32833 21.625 4.50167 21.625H19.4983C20.6717 21.625 21.625 20.6717 21.625 19.4983V4.50167C21.625 3.32833 20.6717 2.375 19.4983 2.375H4.50167Z" fill="#037FFF"/>
<path d="M17.6283 8.49841H11.0649V9.87341H17.6283V8.49841Z" fill="#037FFF"/>
<path d="M15.7491 10.845H11.0649V12.22H15.7491V10.845Z" fill="#037FFF"/>
<path d="M11.5141 13.3933L9.87324 15.025V7.3158H8.49824V15.025L6.85741 13.3933L5.88574 14.365L9.18574 17.6558L12.4857 14.365L11.5141 13.3933Z" fill="#037FFF"/>
</svg>
