<svg width="24" height="24" viewBox="0 0 24 24" fill="none" xmlns="http://www.w3.org/2000/svg">
<path d="M19.4983 23H4.50167C2.5675 23 1 21.4325 1 19.4983V4.50167C1 2.5675 2.5675 1 4.50167 1H19.4983C21.4325 1 23 2.5675 23 4.50167V19.4983C23 21.4325 21.4325 23 19.4983 23ZM4.50167 2.375C3.32833 2.375 2.375 3.32833 2.375 4.50167V19.4983C2.375 20.6717 3.32833 21.625 4.50167 21.625H19.4983C20.6717 21.625 21.625 20.6717 21.625 19.4983V4.50167C21.625 3.32833 20.6717 2.375 19.4983 2.375H4.50167Z" fill="#037FFF"/>
<path d="M14.3466 11.7709C15.0524 11.1292 15.5016 10.2125 15.5016 9.18587C15.5016 7.26087 13.9341 5.6842 11.9999 5.6842C10.0657 5.6842 8.49825 7.2517 8.49825 9.18587C8.49825 10.2125 8.94741 11.1292 9.65325 11.7709C7.33408 12.7059 5.68408 14.9792 5.68408 17.6284H7.05908C7.05908 14.9059 9.27742 12.6875 11.9999 12.6875C14.7224 12.6875 16.9407 14.9059 16.9407 17.6284H18.3157C18.3157 14.9792 16.6657 12.7059 14.3466 11.7709ZM9.87325 9.18587C9.87325 8.01254 10.8266 7.0592 11.9999 7.0592C13.1732 7.0592 14.1266 8.01254 14.1266 9.18587C14.1266 10.3592 13.1732 11.3125 11.9999 11.3125C10.8266 11.3125 9.87325 10.3592 9.87325 9.18587Z" fill="#037FFF"/>
</svg>
