<svg width="24" height="24" viewBox="0 0 24 24" fill="none" xmlns="http://www.w3.org/2000/svg">
<path d="M19.45 23H4.55C2.59 23 1 21.41 1 19.45V4.55C1 2.59 2.59 1 4.55 1H19.46C21.42 1 23.01 2.59 23.01 4.55V19.46C23.01 21.42 21.42 23.01 19.46 23.01L19.45 23ZM4.55 2.5C3.42 2.5 2.5 3.42 2.5 4.55V19.46C2.5 20.59 3.42 21.51 4.55 21.51H19.46C20.59 21.51 21.51 20.59 21.51 19.46V4.55C21.51 3.42 20.59 2.5 19.46 2.5H4.55Z" fill="#037FFF"/>
<path d="M17.59 17.41H6.40998C5.47998 17.41 4.72998 16.66 4.72998 15.73V8.27998C4.72998 7.34998 5.47998 6.59998 6.40998 6.59998H11.6C12.06 6.59998 12.5 6.78998 12.82 7.11998L13.96 8.31998C13.96 8.31998 14.04 8.37998 14.09 8.37998H17.59C18.52 8.37998 19.27 9.12998 19.27 10.06V15.74C19.27 16.67 18.52 17.42 17.59 17.42V17.41ZM6.40998 8.08998C6.30998 8.08998 6.22998 8.16998 6.22998 8.26998V15.72C6.22998 15.82 6.30998 15.9 6.40998 15.9H17.59C17.69 15.9 17.77 15.82 17.77 15.72V10.04C17.77 9.93998 17.69 9.85998 17.59 9.85998H14.09C13.63 9.85998 13.19 9.66998 12.87 9.33998L11.73 8.13998C11.73 8.13998 11.65 8.07998 11.6 8.07998H6.40998V8.08998Z" fill="#037FFF"/>
</svg>
