<svg width="24" height="24" viewBox="0 0 24 24" fill="none" xmlns="http://www.w3.org/2000/svg">
<path d="M19.45 23H4.55C2.59 23 1 21.41 1 19.45V4.55C1 2.59 2.59 1 4.55 1H19.46C21.42 1 23.01 2.59 23.01 4.55V19.46C23.01 21.42 21.42 23.01 19.46 23.01L19.45 23ZM4.55 2.5C3.42 2.5 2.5 3.42 2.5 4.55V19.46C2.5 20.59 3.42 21.51 4.55 21.51H19.46C20.59 21.51 21.51 20.59 21.51 19.46V4.55C21.51 3.42 20.59 2.5 19.46 2.5H4.55Z" fill="#037FFF"/>
<path d="M15.91 12.93C15.91 15.09 14.16 16.84 12 16.84C10.31 16.84 8.88002 15.76 8.34002 14.26H9.81002V12.76H5.77002V16.8H7.27002V15.54C8.19002 17.2 9.97002 18.34 12 18.34C14.98 18.34 17.41 15.91 17.41 12.93H15.91Z" fill="#037FFF"/>
<path d="M16.7298 7.20003V8.46003C15.8098 6.79003 14.0298 5.66003 11.9998 5.66003C9.01984 5.66003 6.58984 8.09003 6.58984 11.07H8.08984C8.08984 8.91003 9.83984 7.16003 11.9998 7.16003C13.6898 7.16003 15.1198 8.24003 15.6598 9.74003H14.1898V11.24H18.2298V7.20003H16.7298Z" fill="#037FFF"/>
</svg>
