<svg width="24" height="24" viewBox="0 0 24 24" fill="none" xmlns="http://www.w3.org/2000/svg">
<path d="M11.7 3.75C11.39 2.18 10 1 8.34 1C6.68 1 5.29 2.18 4.98 3.75H1V5.13H4.97C5.28 6.7 6.67 7.88 8.33 7.88C9.99 7.88 11.38 6.7 11.69 5.13H22.99V3.75H11.69H11.7ZM8.33 6.5C7.19 6.5 6.27 5.57 6.27 4.44C6.27 3.31 7.2 2.38 8.33 2.38C9.46 2.38 10.39 3.31 10.39 4.44C10.39 5.57 9.46 6.5 8.33 6.5Z" fill="#037FFF"/>
<path d="M19.03 11.3101C18.72 9.74006 17.33 8.56006 15.67 8.56006C14.01 8.56006 12.62 9.74006 12.31 11.3101H1V12.6901H12.3C12.61 14.2601 14 15.4401 15.66 15.4401C17.32 15.4401 18.71 14.2601 19.02 12.6901H22.99V11.3101H19.02H19.03ZM15.67 14.0601C14.53 14.0601 13.61 13.1301 13.61 12.0001C13.61 10.8701 14.54 9.94006 15.67 9.94006C16.8 9.94006 17.73 10.8701 17.73 12.0001C17.73 13.1301 16.8 14.0601 15.67 14.0601Z" fill="#037FFF"/>
<path d="M11.7 18.88C11.39 17.31 10 16.13 8.34 16.13C6.68 16.13 5.29 17.31 4.98 18.88H1V20.26H4.97C5.28 21.83 6.67 23.01 8.33 23.01C9.99 23.01 11.38 21.83 11.69 20.26H22.99V18.88H11.69H11.7ZM8.33 21.62C7.19 21.62 6.27 20.69 6.27 19.56C6.27 18.43 7.2 17.5 8.33 17.5C9.46 17.5 10.39 18.43 10.39 19.56C10.39 20.69 9.46 21.62 8.33 21.62Z" fill="#037FFF"/>
</svg>
