<svg width="24" height="24" viewBox="0 0 24 24" fill="none" xmlns="http://www.w3.org/2000/svg">
<path d="M19.4983 23H4.50167C2.5675 23 1 21.4325 1 19.4983V4.50167C1 2.5675 2.5675 1 4.50167 1H19.4983C21.4325 1 23 2.5675 23 4.50167V19.4983C23 21.4325 21.4325 23 19.4983 23ZM4.50167 2.375C3.32833 2.375 2.375 3.32833 2.375 4.50167V19.4983C2.375 20.6717 3.32833 21.625 4.50167 21.625H19.4983C20.6717 21.625 21.625 20.6717 21.625 19.4983V4.50167C21.625 3.32833 20.6717 2.375 19.4983 2.375H4.50167Z" fill="#037FFF"/>
<path d="M7.31586 9.8733C6.41753 9.8733 5.69336 9.14913 5.69336 8.2508C5.69336 7.35246 6.41753 6.6283 7.31586 6.6283C8.21419 6.6283 8.93836 7.36163 8.93836 8.2508C8.93836 9.13996 8.20503 9.8733 7.31586 9.8733ZM7.31586 8.0033C7.17836 8.0033 7.06836 8.1133 7.06836 8.2508C7.06836 8.5258 7.57253 8.5258 7.57253 8.2508C7.57253 8.1133 7.46253 8.0033 7.32503 8.0033H7.31586Z" fill="#037FFF"/>
<path d="M7.31586 13.6224C6.41753 13.6224 5.69336 12.8983 5.69336 11.9999C5.69336 11.1016 6.41753 10.3774 7.31586 10.3774C8.21419 10.3774 8.93836 11.1108 8.93836 11.9999C8.93836 12.8891 8.20503 13.6224 7.31586 13.6224ZM7.31586 11.7524C7.17836 11.7524 7.06836 11.8624 7.06836 11.9999C7.06836 12.2749 7.57253 12.2749 7.57253 11.9999C7.57253 11.8624 7.46253 11.7524 7.32503 11.7524H7.31586Z" fill="#037FFF"/>
<path d="M7.31586 17.3717C6.41753 17.3717 5.69336 16.6475 5.69336 15.7492C5.69336 14.8509 6.41753 14.1267 7.31586 14.1267C8.21419 14.1267 8.93836 14.8509 8.93836 15.7492C8.93836 16.6475 8.20503 17.3717 7.31586 17.3717ZM7.31586 15.5017C7.17836 15.5017 7.06836 15.6117 7.06836 15.7492C7.06836 16.0242 7.57253 16.0242 7.57253 15.7492C7.57253 15.6117 7.46253 15.5017 7.32503 15.5017H7.31586Z" fill="#037FFF"/>
<path d="M17.6189 7.56335H10.1206V8.93835H17.6189V7.56335Z" fill="#037FFF"/>
<path d="M15.7489 11.3125H10.1206V12.6875H15.7489V11.3125Z" fill="#037FFF"/>
<path d="M13.8698 15.0616H10.1206V16.4366H13.8698V15.0616Z" fill="#037FFF"/>
</svg>
