<svg width="24" height="24" viewBox="0 0 24 24" fill="none" xmlns="http://www.w3.org/2000/svg">
<path d="M19.4983 23H4.50167C2.5675 23 1 21.4325 1 19.4983V4.50167C1 2.5675 2.5675 1 4.50167 1H19.4983C21.4325 1 23 2.5675 23 4.50167V19.4983C23 21.4325 21.4325 23 19.4983 23ZM4.50167 2.375C3.32833 2.375 2.375 3.32833 2.375 4.50167V19.4983C2.375 20.6717 3.32833 21.625 4.50167 21.625H19.4983C20.6717 21.625 21.625 20.6717 21.625 19.4983V4.50167C21.625 3.32833 20.6717 2.375 19.4983 2.375H4.50167Z" fill="#037FFF"/>
<path d="M15.9873 8.01251C15.9873 8.66334 15.4648 9.18584 14.814 9.18584C14.1631 9.18584 13.6406 8.66334 13.6406 8.01251C13.6406 7.36167 14.1631 6.83917 14.814 6.83917C15.4648 6.83917 15.9873 7.36167 15.9873 8.01251Z" fill="#037FFF"/>
<path d="M18.0959 4.28168H5.90424C5.0059 4.28168 4.28174 5.00584 4.28174 5.90418V12.935C4.28174 13.8333 5.0059 14.5575 5.90424 14.5575H18.0959C18.9942 14.5575 19.7184 13.8242 19.7184 12.935V5.90418C19.7184 5.00584 18.9851 4.28168 18.0959 4.28168ZM5.65674 5.90418C5.65674 5.76668 5.76674 5.65668 5.90424 5.65668H18.0959C18.2334 5.65668 18.3434 5.76668 18.3434 5.90418V11.3492L17.0509 10.2583L15.0342 11.9633L10.9917 8.55334L5.6934 13.0267C5.6934 13.0267 5.65674 12.9717 5.65674 12.9442V5.91334V5.90418Z" fill="#037FFF"/>
<path d="M19.4981 15.9966H4.50146V17.3716H19.4981V15.9966Z" fill="#037FFF"/>
<path d="M15.749 18.3433H4.50146V19.7183H15.749V18.3433Z" fill="#037FFF"/>
</svg>
