<svg width="24" height="24" viewBox="0 0 24 24" fill="none" xmlns="http://www.w3.org/2000/svg">
<path d="M19.46 23H4.55C2.59 23 1 21.41 1 19.45V4.55C1 2.59 2.59 1 4.55 1H19.46C21.42 1 23 2.59 23 4.55V19.46C23 21.42 21.41 23.01 19.46 23.01V23ZM4.55 2.5C3.42 2.5 2.5 3.42 2.5 4.55V19.46C2.5 20.59 3.42 21.51 4.55 21.51H19.46C20.59 21.51 21.5 20.59 21.5 19.46V4.55C21.5 3.42 20.58 2.5 19.46 2.5H4.55Z" fill="#037FFF"/>
<path d="M17.0602 18.12L14.5702 15.6C13.6402 16.32 12.4702 16.74 11.2002 16.74C8.14016 16.74 5.66016 14.25 5.66016 11.2C5.66016 8.15003 8.15016 5.66003 11.2002 5.66003C14.2502 5.66003 16.7402 8.15003 16.7402 11.2C16.7402 12.45 16.3202 13.61 15.6202 14.53L18.1202 17.06L17.0502 18.11L17.0602 18.12ZM11.2002 7.16003C8.97016 7.16003 7.16016 8.97003 7.16016 11.2C7.16016 13.43 8.97016 15.24 11.2002 15.24C13.4302 15.24 15.2402 13.43 15.2402 11.2C15.2402 8.97003 13.4302 7.16003 11.2002 7.16003Z" fill="#037FFF"/>
</svg>
