<svg width="24" height="24" viewBox="0 0 24 24" fill="none" xmlns="http://www.w3.org/2000/svg">
<path d="M19.46 23H4.55C2.59 23 1 21.41 1 19.45V4.55C1 2.59 2.59 1 4.55 1H19.46C21.42 1 23 2.59 23 4.55V19.46C23 21.42 21.41 23.01 19.46 23.01V23ZM4.55 2.5C3.42 2.5 2.5 3.42 2.5 4.55V19.46C2.5 20.59 3.42 21.51 4.55 21.51H19.46C20.59 21.51 21.5 20.59 21.5 19.46V4.55C21.5 3.42 20.58 2.5 19.46 2.5H4.55Z" fill="#037FFF"/>
<path d="M11.5301 18.42C11.1001 18.42 10.6701 18.26 10.3401 17.93L6.07008 13.66C5.75008 13.34 5.58008 12.92 5.58008 12.47C5.58008 12.02 5.76008 11.6 6.07008 11.28L10.7301 6.62C11.0401 6.31 11.4801 6.13 11.9201 6.13H16.1901C17.1201 6.13 17.8701 6.88 17.8701 7.81V12.08C17.8701 12.53 17.7001 12.95 17.3801 13.27L12.7201 17.93C12.3901 18.26 11.9601 18.42 11.5301 18.42ZM11.9201 7.62C11.9201 7.62 11.8301 7.64 11.7901 7.67L7.13008 12.33C7.07008 12.39 7.07008 12.53 7.13008 12.59L11.4001 16.86C11.4701 16.93 11.5901 16.93 11.6601 16.86L16.3201 12.2C16.3201 12.2 16.3701 12.12 16.3701 12.07V7.8C16.3701 7.7 16.2901 7.62 16.1901 7.62H11.9201Z" fill="#037FFF"/>
<path d="M15.0899 9.87003C15.0899 10.4 14.6599 10.83 14.1299 10.83C13.5999 10.83 13.1699 10.4 13.1699 9.87003C13.1699 9.34003 13.5999 8.91003 14.1299 8.91003C14.6599 8.91003 15.0899 9.34003 15.0899 9.87003Z" fill="#037FFF"/>
</svg>
