<svg width="24" height="24" viewBox="0 0 24 24" fill="none" xmlns="http://www.w3.org/2000/svg">
<path d="M19.45 23H4.54C2.58 23 1 21.41 1 19.45V4.55C1 2.59 2.59 1 4.54 1H19.45C21.41 1 23 2.59 23 4.55V19.46C23 21.42 21.41 23.01 19.45 23.01V23ZM4.54 2.5C3.41 2.5 2.5 3.42 2.5 4.55V19.46C2.5 20.59 3.42 21.51 4.54 21.51H19.45C20.58 21.51 21.5 20.59 21.5 19.46V4.55C21.5 3.42 20.58 2.5 19.45 2.5H4.54Z" fill="#037FFF"/>
<path d="M15.2598 14.05C14.3398 14.05 13.5598 14.63 13.2498 15.45H9.47982V12.29H13.2498C13.5598 13.1 14.3398 13.69 15.2498 13.69C16.4298 13.69 17.3998 12.73 17.3998 11.54C17.3998 10.35 16.4398 9.39003 15.2498 9.39003C14.3298 9.39003 13.5498 9.97003 13.2398 10.79H9.46982V9.82003C10.2798 9.51003 10.8698 8.73003 10.8698 7.81003C10.8698 6.63003 9.90982 5.66003 8.71982 5.66003C7.52982 5.66003 6.56982 6.62003 6.56982 7.81003C6.56982 8.73003 7.14982 9.51003 7.96982 9.82003V16.95H13.2398C13.5498 17.76 14.3298 18.35 15.2498 18.35C16.4298 18.35 17.3998 17.39 17.3998 16.2C17.3998 15.01 16.4398 14.05 15.2498 14.05H15.2598ZM15.2598 10.89C15.6198 10.89 15.9098 11.18 15.9098 11.54C15.9098 11.9 15.6198 12.19 15.2598 12.19C14.8998 12.19 14.6098 11.9 14.6098 11.54C14.6098 11.18 14.8998 10.89 15.2598 10.89ZM8.73982 7.16003C9.09982 7.16003 9.38982 7.45003 9.38982 7.81003C9.38982 8.17003 9.09982 8.46003 8.73982 8.46003C8.37982 8.46003 8.08982 8.17003 8.08982 7.81003C8.08982 7.45003 8.37982 7.16003 8.73982 7.16003ZM15.2598 16.84C14.8998 16.84 14.6098 16.55 14.6098 16.19C14.6098 15.83 14.8998 15.54 15.2598 15.54C15.6198 15.54 15.9098 15.83 15.9098 16.19C15.9098 16.55 15.6198 16.84 15.2598 16.84Z" fill="#037FFF"/>
</svg>
